<svg width="73" height="72" viewBox="0 0 73 72" fill="none" xmlns="http://www.w3.org/2000/svg">
<path d="M0.5 36C0.5 16.1178 16.6178 0 36.5 0C56.3823 0 72.5 16.1178 72.5 36C72.5 55.8823 56.3823 72 36.5 72C16.6178 72 0.5 55.8823 0.5 36Z" fill="#B6D7FF"/>
<path d="M21.7148 41.9999C21.7148 42.3155 21.9707 42.5714 22.2863 42.5714H49.7148C50.0304 42.5714 50.2863 42.3155 50.2863 41.9999V24.2856H21.7148V41.9999Z" fill="white"/>
<path d="M51.4286 22H20.5714C20.2559 22 20 22.2559 20 22.5714C20 22.887 20.2559 23.1429 20.5714 23.1429H51.4286C51.7441 23.1429 52 22.887 52 22.5714C52 22.2559 51.7441 22 51.4286 22Z" fill="white"/>
<path d="M40.572 51.7144H36.572V44.8572H37.1434C37.459 44.8572 37.7148 44.6014 37.7148 44.2858V43.7144H34.2863V44.2858C34.2863 44.6014 34.5421 44.8572 34.8577 44.8572H35.4291V51.7144H31.4291C30.4824 51.7144 29.7148 52.4819 29.7148 53.4286V54.0001H42.2863V53.4286C42.2863 52.4819 41.5187 51.7144 40.572 51.7144Z" fill="white"/>
</svg>
