<svg width="21" height="20" viewBox="0 0 21 20" fill="none" xmlns="http://www.w3.org/2000/svg">
<path d="M10.5002 5.95324L9.13577 4.55662L9.13521 4.55605C8.78731 4.20177 8.37231 3.92037 7.91444 3.72827C7.45657 3.53617 6.96502 3.43723 6.46849 3.43723C5.97196 3.43723 5.4804 3.53617 5.02253 3.72827C4.56474 3.92033 4.14981 4.20167 3.80195 4.55586C3.08795 5.2808 2.68773 6.25748 2.68773 7.275C2.68773 8.29259 3.08801 9.26935 3.80211 9.9943L3.80239 9.99459L10.2774 16.5508L10.4997 16.776L10.7221 16.5508L17.1971 9.99459L17.1974 9.9943C17.9115 9.26935 18.3117 8.29259 18.3117 7.275C18.3117 6.25752 17.9116 5.28088 17.1976 4.55595C16.8499 4.20148 16.435 3.91997 15.9771 3.72791C15.5193 3.53591 15.0278 3.43718 14.5314 3.4375C14.5312 3.4375 14.531 3.4375 14.5307 3.4375L14.531 3.75M10.5002 5.95324L11.8571 4.56949L11.8579 4.5687L12.081 4.7875M10.5002 5.95324L11.8563 4.57036M10.5002 5.95324L11.8563 4.57036M14.531 3.75C14.0738 3.74935 13.6213 3.84089 13.2003 4.01915C12.7793 4.19741 12.3986 4.45874 12.081 4.7875M14.531 3.75C14.986 3.74962 15.4366 3.84008 15.8562 4.01609C16.2758 4.1921 16.6561 4.45011 16.9747 4.775L14.531 3.75ZM12.081 4.7875L11.8563 4.57036M12.081 4.7875L11.8563 4.57036M14.5307 2.8125L14.5309 2.8125C15.1108 2.81266 15.6849 2.92827 16.2196 3.15259C16.7544 3.37691 17.2391 3.70544 17.6456 4.11904C18.4745 4.96287 18.9389 6.09841 18.9389 7.28125C18.9389 8.46391 18.4746 9.59929 17.646 10.4431C17.6458 10.4432 17.6457 10.4434 17.6456 10.4435L10.4997 17.6802L3.35392 10.4435C3.35381 10.4434 3.35371 10.4433 3.3536 10.4432C2.52488 9.59939 2.06055 8.46396 2.06055 7.28125C2.06055 6.09846 2.52495 4.96295 3.35378 4.11913C3.76036 3.70575 4.24515 3.37744 4.77991 3.15333C5.31466 2.92923 5.88867 2.81381 6.46849 2.81381C7.0483 2.81381 7.62232 2.92923 8.15707 3.15333C8.69182 3.37744 9.17662 3.70575 9.58319 4.11913L9.58403 4.11998L10.2778 4.81998L10.4997 5.04394L10.7217 4.81998L11.4155 4.11998L11.4166 4.11879C11.8226 3.70475 12.3072 3.37593 12.8419 3.15161C13.3767 2.9273 13.9508 2.81201 14.5307 2.8125Z" fill="#BDBDBD" stroke="#252B42" stroke-width="0.625"/>
</svg>
